<svg width="20" height="20" viewBox="0 0 20 20" fill="none" xmlns="http://www.w3.org/2000/svg">
<path d="M9.89427 17.8384C8.50889 17.7069 7.06953 17.1481 5.90182 16.2872L5.34019 15.8732L5.84586 15.2972C6.12399 14.9805 6.3663 14.7212 6.38435 14.7212C6.40235 14.7212 6.68822 14.9077 7.01953 15.1355C8.21359 15.9567 9.20185 16.2658 10.6517 16.2719C11.8214 16.2719 12.4669 16.1264 13.5479 15.5969C14.1646 15.2949 14.4552 15.0757 15.1116 14.4167C15.7652 13.7605 15.9877 13.4639 16.2871 12.8499C16.7994 11.7992 16.9587 11.1229 16.9587 9.99838C16.9587 8.88138 16.8013 8.20838 16.2921 7.14852C15.9922 6.52438 15.7879 6.25266 15.1172 5.58623C14.2358 4.71052 13.537 4.28123 12.4526 3.94923C9.11749 2.92838 5.50477 4.96152 4.55333 8.39495C4.27463 9.40066 4.2629 9.37452 4.99309 9.37452C5.33617 9.37452 5.61687 9.40166 5.61687 9.43309C5.61687 9.49881 3.53857 13.1212 3.51747 13.0917C3.42233 12.9588 1.42859 9.45566 1.42859 9.42152C1.42859 9.39581 1.72523 9.37438 2.08779 9.37438H2.74697L2.84869 8.77281C3.38863 5.57923 5.6852 3.08738 8.79809 2.31752C9.78953 2.07238 11.4955 2.05309 12.4187 2.27609C16.9947 3.38466 19.6293 8.05509 18.1667 12.4659C17.5512 14.3221 16.2174 15.9172 14.4372 16.9264C13.7666 17.3064 12.4679 17.7274 11.7656 17.7921C11.4471 17.8221 11.0461 17.8578 10.8745 17.8735C10.703 17.8892 10.2619 17.8732 9.89427 17.8384ZM9.89427 14.1489C9.89427 13.6704 9.89142 13.6647 9.56339 13.5565C9.04776 13.3864 8.33306 12.6144 8.16395 12.0449C7.91846 11.2182 7.89116 11.2459 8.95373 11.2459C9.88136 11.2459 9.88495 11.2467 10.0017 11.4909C10.1731 11.8497 10.7007 11.9674 11.0322 11.7211C11.1873 11.6054 11.2855 11.4402 11.3031 11.2644C11.3352 10.9432 11.2073 10.8581 10.2062 10.5328C9.86309 10.4214 9.44203 10.2589 9.27049 10.1718C8.85437 9.96052 8.33116 9.40723 8.16093 8.99866C7.98872 8.58523 7.98297 7.86038 8.14807 7.46352C8.32912 7.03023 8.91312 6.48266 9.3874 6.30152L9.79619 6.14538L9.82262 5.64352L9.84905 5.14166L10.6288 5.11595L11.4085 5.09023V5.62423V6.15823L11.7872 6.32652C11.9955 6.41938 12.2971 6.60566 12.4573 6.74109C12.8364 7.06138 13.2452 7.75166 13.1264 7.87066C13.0778 7.91923 12.6708 8.07309 12.2219 8.21252C11.456 8.45066 11.4004 8.45666 11.3214 8.30823C11.1294 7.94966 10.2481 7.85123 9.99199 8.15981C9.83392 8.35023 10.1378 8.54766 11.038 8.83952C12.3025 9.24938 12.9482 9.75809 13.1782 10.5255C13.5148 11.6491 13.0319 12.8025 11.9753 13.3988L11.4976 13.6684V14.1499V14.6317H10.6956H9.8936L9.89427 14.1489Z" fill="black"/>
</svg>
